<svg fill="none" height="24" viewBox="0 0 24 24" width="24" xmlns="http://www.w3.org/2000/svg" xmlns:xlink="http://www.w3.org/1999/xlink"><linearGradient id="paint0_linear_226_1747" gradientUnits="userSpaceOnUse" x1="11.5" x2="11.5" y1="3" y2="21"><stop offset="0" stop-color="#fd7800"/><stop offset="1" stop-color="#ffc900"/></linearGradient><clipPath id="clip0_226_1747"><path d="m0 0h24v24h-24z"/></clipPath><g clip-path="url(#clip0_226_1747)" fill="url(#paint0_linear_226_1747)"><path d="m22.9472 10.276c-.124-.247-.423-.346-.671-.224l-1.276.639v-.191c0-.276-.224-.5-.5-.5h-18.00004c-.277 0-.5.224-.5.5v.191l-1.275999-.638c-.247-.122-.547-.023-.6709996.224-.124.247-.023.547.2239996.671l1.722999.861v3.691c0 3.033 2.467 5.5 5.5 5.5h8.00004c3.033 0 5.5-2.467 5.5-5.5v-3.691l1.724-.862c.247-.123.347-.424.223-.671zm-15.44704 8.724c-1.93 0-3.5-1.57-3.5-3.5 0-.276.223-.5.5-.5s.5.224.5.5c0 1.378 1.121 2.5 2.5 2.5.276 0 .5.224.5.5s-.224.5-.5.5z"/><path d="m2.63982 9h17.71698c.155 0 .301-.072.396-.194.095-.123.127-.282.088-.432-.514-1.986-2.3-3.374-4.342-3.374h-2.551c-.232-1.14-1.242-2-2.449-2s-2.21698.86-2.44998 2h-2.55c-2.043 0-3.828 1.388-4.342 3.375-.039.15-.006.309.088.432.095.121.241.193.395.193zm8.85898-5c.651 0 1.201.419 1.408 1h-2.816c.207-.581.757-1 1.408-1z"/></g></svg>
